<?xml version="1.0" encoding="UTF-8"?>
<svg id="Layer_2" xmlns="http://www.w3.org/2000/svg" viewBox="0 0 2516.85 1097.56">
  <defs>
    <style>
      .cls-1 {
        fill: #de2c93;
      }
    </style>
  </defs>
  <g id="Layer_1-2" data-name="Layer_1">
    <g>
      <path class="cls-1" d="M2236.69,464.07c-253.14,0-480.87,109.28-638.39,283.29,24.44,28.32,49.31,57.17,74.62,86.67,87.53,101.65,156.55,190.15,204.36,254,93.68-290.28,337.24-513.16,639.57-577.34-87.86-30.26-182.07-46.62-280.15-46.62Z"/>
      <path class="cls-1" d="M1743.85,960.97c-31.44-38.98-66.76-81.72-105.73-126.95-28.1-32.73-55.66-64.71-82.8-96.04-2.26-2.69-4.52-5.27-6.78-7.86-108.54-125.22-210.5-239.79-312.36-339.06-8.08-7.97-16.04-15.72-24.11-23.36-134.59-128.02-270.05-229.23-421.22-293.84-.32-.21-.75-.32-1.07-.43C667.57,25.95,534.7,0,395.8,0S122.64,26.27,0,74.08c172.06,14.32,457.81,127.48,887.53,578.31,126.52,132.87,203.83,226.11,265.52,291.57,0,.11.11.22.11.22,36.93,39.09,68.15,68.37,101.1,90.12.64.32,1.29.75,1.94,1.18,26.37,15.94,54.7,28.86,84.62,38.22.22.11.43.22.65.22,28.96,8.08,61.69,13.46,101.09,17.01,13.68,1.19,28.11,2.15,43.4,3.02,83.55,4.52,193.81,3.55,348.75,3.45h13.89c.11-.22.22-.54.42-.86-1.4-1.83-2.8-3.77-4.3-5.6-26.92-35.96-60.73-80-100.89-129.96Z"/>
    </g>
  </g>
</svg>